<?xml version="1.0" standalone="no"?>
<!DOCTYPE svg PUBLIC "-//W3C//DTD SVG 20010904//EN"
 "http://www.w3.org/TR/2001/REC-SVG-20010904/DTD/svg10.dtd">
<svg version="1.0" xmlns="http://www.w3.org/2000/svg"
 width="5794.000000pt" height="5846.000000pt" viewBox="0 0 5794.000000 5846.000000"
 preserveAspectRatio="xMidYMid meet">
<metadata>
Created by potrace 1.16, written by Peter Selinger 2001-2019
</metadata>
<g transform="translate(0.000000,5846.000000) scale(0.100000,-0.100000)"
fill="#000000" stroke="none">
<path d="M30640 58084 c-241 -27 -361 -50 -515 -99 -397 -125 -687 -430 -791
-832 -50 -192 -50 -200 77 -1576 62 -680 111 -1238 108 -1240 -2 -2 -690 20
-1529 49 -1758 61 -1783 62 -1898 34 -327 -78 -579 -346 -637 -675 -12 -70
-15 -180 -15 -561 l0 -474 -1548 0 c-1038 0 -1568 -3 -1608 -11 -131 -23 -261
-77 -369 -154 -73 -52 -190 -173 -230 -237 l-30 -48 -744 0 c-409 0 -742 -2
-739 -5 5 -5 335 -45 997 -119 216 -25 395 -47 398 -50 3 -2 -2 -35 -11 -73
-18 -72 -55 -701 -56 -929 0 -224 56 -370 200 -515 94 -94 154 -133 275 -176
l80 -28 8755 0 8755 0 81 22 c362 96 652 369 759 714 l18 56 216 7 c1091 34
2118 86 3111 157 420 30 438 31 532 16 315 -52 565 -263 669 -565 33 -95 38
-157 74 -827 445 -8379 640 -12045 705 -13270 92 -1735 326 -6130 470 -8845
55 -1031 114 -2145 131 -2475 17 -330 33 -610 35 -623 3 -13 9 -22 14 -20 4 2
55 48 112 103 89 86 113 117 172 220 87 153 323 531 437 701 91 136 135 183
216 226 57 31 295 91 448 113 60 9 110 17 112 19 11 10 -74 1370 -92 1482 l-5
31 -63 -14 c-85 -17 -262 -16 -355 3 -166 33 -319 114 -429 226 -104 106 -165
233 -194 402 -15 88 -6 351 15 467 85 460 384 1130 760 1704 l96 145 41 -45
c107 -116 372 -246 714 -350 164 -50 388 -102 504 -116 l96 -12 84 -441 c47
-243 86 -443 88 -445 1 -2 24 10 50 27 184 118 341 139 444 59 86 -67 148
-216 135 -326 -22 -189 -207 -358 -472 -432 -74 -21 -198 -28 -304 -17 -21 3
-56 -29 -202 -177 l-177 -180 75 -230 c255 -783 461 -1556 500 -1879 l7 -59
61 -25 c246 -103 566 -301 786 -484 148 -125 226 -206 277 -291 20 -34 60 -82
87 -106 289 -249 677 -661 997 -1057 l138 -172 76 15 c422 79 855 324 1065
602 198 260 256 630 140 887 -61 135 -174 268 -297 350 l-62 42 77 27 c371
132 686 409 861 760 208 417 214 983 16 1565 -87 258 -256 614 -371 785 -305
455 -739 733 -1276 820 -318 51 -716 32 -1063 -50 -94 -22 -137 -34 -257 -71
-13 -4 -7 16 27 88 92 194 121 329 112 520 -5 133 -26 217 -77 318 -47 92
-125 194 -200 261 -65 58 -70 66 -70 104 -1 116 -65 311 -138 418 -110 158
-303 273 -530 312 -56 10 -146 15 -252 15 -130 -1 -186 3 -264 19 -241 51
-561 66 -756 37 -161 -25 -318 -82 -427 -158 l-43 -29 0 28 c0 15 -68 1353
-150 2973 -83 1619 -150 2968 -150 2997 l0 52 158 -6 c86 -3 1129 -31 2317
-64 2145 -58 2161 -58 2290 -83 556 -107 1046 -399 1354 -805 204 -270 332
-586 388 -960 14 -95 17 -175 15 -451 -1 -184 -88 -5996 -192 -12915 -159
-10533 -192 -12591 -205 -12649 -68 -316 -294 -561 -607 -658 l-73 -23 -1435
-5 -1435 -5 -13 -65 c-8 -36 -38 -164 -68 -286 -96 -397 -239 -1046 -470
-2134 l-135 -635 26 -67 27 -68 4164 0 c3703 0 4168 2 4194 15 63 33 60 -39
60 1223 l0 1149 -23 34 c-13 19 -38 39 -57 46 -27 9 -432 12 -1678 12 l-1644
1 60 45 c165 124 290 322 338 533 15 70 37 1415 173 10787 54 3700 59 4022 66
4485 3 168 7 492 10 720 3 228 7 541 10 695 3 154 7 462 10 685 13 1067 24
1863 30 2180 3 151 7 453 10 670 8 622 24 1743 30 2105 3 182 7 506 10 720 3
215 7 512 10 660 3 149 19 1269 37 2490 24 1707 29 2238 20 2298 -14 94 -68
259 -118 359 -232 466 -631 787 -1102 889 -72 15 -146 22 -287 25 -2011 50
-2937 75 -3010 79 -49 2 -232 7 -405 11 -574 10 -2902 72 -2907 77 -6 7 -9 64
-118 2212 -52 1029 -126 2491 -165 3250 -39 759 -77 1513 -85 1675 -20 407
-24 491 -30 595 -16 289 -10 171 -105 2050 -32 649 -64 1248 -70 1330 -28 377
-123 722 -292 1054 -239 472 -596 853 -1050 1123 -382 226 -787 349 -1243 378
-99 6 -923 10 -2155 10 l-1995 0 -85 85 c-136 139 -301 241 -487 303 -189 64
-139 62 -1560 62 l-1291 0 -6 63 c-3 34 -13 184 -21 332 -21 356 -32 417 -98
550 -86 175 -216 300 -400 385 -152 71 -74 65 -1777 125 -855 30 -1556 54
-1557 55 -1 0 38 82 87 183 204 422 330 818 381 1207 20 146 17 482 -5 615
-94 578 -388 1004 -940 1360 -392 253 -812 419 -1216 480 -99 15 -472 28 -550
19z m725 -415 c151 -16 227 -34 247 -59 20 -25 23 -52 7 -81 -18 -35 -49 -39
-165 -18 -149 26 -380 35 -529 20 -218 -21 -447 -77 -570 -139 -211 -105 -396
-312 -475 -531 -64 -175 -72 -293 -44 -604 12 -133 14 -185 6 -202 -20 -43
-100 -46 -123 -4 -18 35 -51 412 -45 524 26 501 363 907 856 1034 289 74 531
91 835 60z m20 -914 c246 -67 446 -262 525 -510 34 -108 39 -276 11 -385 -72
-285 -277 -491 -561 -561 -109 -28 -277 -23 -385 11 -235 73 -419 254 -497
489 -29 88 -32 107 -32 226 -1 150 17 224 87 360 58 112 190 245 302 302 83
42 150 67 226 83 62 13 253 4 324 -15z m-1514 -1045 c14 -20 22 -72 39 -247
11 -122 20 -231 20 -243 0 -31 -35 -60 -73 -60 -61 0 -68 17 -88 237 -28 296
-28 302 1 325 32 26 78 20 101 -12z m-1629 -1667 c24 -22 24 -77 -2 -103 -20
-20 -33 -20 -822 -20 -900 0 -881 1 -1028 -71 -115 -57 -230 -170 -284 -279
-67 -137 -69 -149 -73 -522 l-5 -338 -69 0 -70 0 4 358 c4 399 6 411 78 559
99 200 289 355 510 412 70 19 115 20 908 20 763 1 836 0 853 -16z m814 9 c15
-10 34 -47 34 -67 0 -9 -11 -27 -25 -40 l-24 -25 -235 0 -235 0 -20 26 c-26
34 -27 68 -1 94 19 19 33 20 258 20 130 0 242 -4 248 -8z"/>
<path d="M16675 52121 c-815 -251 -1493 -819 -1875 -1571 -179 -354 -283 -706
-325 -1104 -13 -128 -15 -719 -15 -5081 l0 -4936 -92 5 c-51 3 -210 8 -353 11
-143 3 -334 7 -425 10 -91 3 -257 7 -370 10 -113 3 -277 7 -365 10 -88 3 -254
7 -370 10 -115 3 -291 7 -390 10 -99 3 -281 7 -405 10 -124 3 -301 7 -395 10
-93 3 -273 7 -400 10 -126 3 -297 8 -380 10 -82 3 -244 7 -360 10 -115 3 -282
7 -370 10 -88 3 -272 7 -410 10 -137 3 -311 8 -385 10 -206 7 -497 14 -780 20
-140 3 -320 7 -400 10 -80 3 -244 7 -365 10 -121 3 -305 7 -410 10 -1555 42
-1535 42 -1773 0 -859 -151 -1564 -780 -1800 -1605 -85 -295 -96 -413 -88
-885 6 -344 26 -1231 41 -1820 9 -349 497 -20967 565 -23885 33 -1405 64
-2607 70 -2671 15 -175 66 -314 165 -454 42 -59 136 -154 205 -207 l35 -27
-2140 -1 c-1630 -1 -2148 -4 -2174 -13 -19 -7 -44 -25 -55 -40 -21 -28 -21
-29 -24 -1165 -2 -784 0 -1148 8 -1174 6 -20 24 -48 41 -62 l31 -26 4414 0
c3523 0 4415 -3 4419 -12 2 -7 18 -137 35 -288 88 -787 211 -1680 321 -2335
60 -358 147 -781 168 -823 41 -80 109 -115 253 -131 253 -28 531 6 626 76 38
28 67 82 76 138 3 22 10 429 16 905 16 1417 30 2382 36 2428 l5 42 631 -2 631
-3 82 -365 c211 -932 455 -1896 686 -2714 50 -177 100 -337 110 -357 19 -39
63 -80 109 -104 87 -45 403 -16 707 65 173 46 249 77 283 116 41 47 46 77 27
164 -9 41 -34 157 -56 257 -146 669 -309 1748 -396 2623 -14 140 -28 270 -31
288 l-5 32 17496 0 17497 0 -4 52 c-3 50 -51 133 -782 1363 -428 721 -850
1430 -938 1578 l-159 267 -3317 1 -3317 2 3275 60 c1801 33 3276 61 3278 62 2
2 -189 326 -424 721 -235 396 -443 753 -461 794 -31 72 -55 164 -68 260 l-6
45 -567 -32 c-6341 -358 -12404 -603 -17162 -693 -2485 -47 -5091 -47 -6790 0
-1227 34 -2271 92 -3095 170 -263 25 -334 41 -443 95 -156 78 -262 183 -342
336 -64 124 -81 204 -86 414 -2 99 -16 2322 -31 4940 l-26 4760 130 245 c201
377 572 1098 934 1816 357 707 353 696 306 764 -39 58 -66 71 -168 81 -127 13
-925 22 -1069 12 l-114 -8 -64 -260 c-69 -287 -77 -303 -148 -311 -21 -2 -493
-27 -1048 -55 -1073 -53 -1048 -53 -1081 -5 -22 30 -19 68 22 277 20 104 34
192 31 194 -14 15 -1330 -130 -1368 -150 -16 -8 -37 -27 -48 -42 -11 -16 -148
-478 -319 -1075 l-300 -1047 56 -6 c228 -23 565 -104 1009 -242 l214 -67 -7
-35 c-4 -20 -15 -56 -26 -80 -58 -132 -163 -183 -328 -158 l-55 8 113 -86 c62
-48 115 -93 117 -100 9 -21 -36 -114 -68 -140 -56 -47 -151 -55 -237 -19 -19
8 -36 13 -38 10 -2 -2 44 -56 103 -120 l107 -117 -30 -37 c-50 -62 -115 -96
-192 -100 -60 -4 -72 -1 -135 32 -122 64 -168 47 -324 -122 -155 -168 -278
-255 -427 -303 -55 -17 -99 -22 -205 -25 l-135 -2 -173 -599 c-189 -656 -193
-674 -141 -729 54 -58 16 -56 858 -65 427 -4 1017 -8 1311 -9 294 0 545 -3
558 -6 l22 -6 0 -3939 c0 -3434 2 -3952 15 -4051 63 -477 292 -899 663 -1221
l42 -37 -1059 0 -1058 0 -7 128 c-65 1266 -107 3106 -109 4822 l-2 1075 37
535 c21 294 40 562 42 595 4 48 0 38 -17 -49 l-22 -109 -100 -34 c-176 -60
-534 -159 -760 -212 -1036 -239 -1985 -289 -2820 -151 -99 17 -234 43 -300 59
-66 16 -121 29 -122 28 -5 -6 -77 -619 -103 -877 -69 -707 -107 -1348 -131
-2215 -13 -476 -7 -1983 10 -2450 17 -453 40 -982 47 -1068 l6 -77 -1513 0
c-1478 0 -1516 1 -1597 20 -333 80 -583 343 -647 681 -13 70 -69 2226 -335
12859 -176 7026 -329 13126 -340 13555 -29 1135 -28 1180 25 1402 123 514 527
957 1030 1128 179 61 274 77 500 82 134 3 1562 -32 3935 -96 2049 -55 3932
-105 4185 -112 253 -6 470 -12 483 -15 l22 -4 0 -6417 0 -6416 173 6 c471 17
1152 124 1677 263 229 60 456 128 466 138 8 8 -8 3269 -62 12291 -40 6754 -73
12573 -73 12930 -1 608 0 655 18 730 21 87 37 128 82 218 16 31 28 57 26 56
-1 0 -42 -13 -92 -28z m-1135 -33876 c0 -302 -1 -316 -20 -335 -25 -25 -71
-26 -101 -1 -24 19 -24 22 -27 226 l-3 207 72 109 c39 60 73 109 75 109 2 0 4
-142 4 -315z m-20 -1825 c20 -20 20 -33 20 -2614 0 -1700 4 -2638 10 -2722 68
-838 651 -1537 1457 -1744 230 -60 201 -59 2122 -84 1714 -22 1773 -23 1791
-42 10 -10 22 -31 25 -46 6 -22 1 -33 -23 -57 l-29 -30 -279 5 c-154 3 -954
14 -1779 25 -1577 20 -1610 21 -1810 69 -622 146 -1142 562 -1421 1135 -118
244 -185 495 -204 771 -7 100 -10 994 -8 2730 3 2523 3 2582 22 2603 25 27 79
28 106 1z m-4635 -5325 c53 -567 133 -1233 225 -1878 28 -192 50 -353 50 -358
0 -5 -111 -9 -266 -9 l-266 0 6 93 c4 50 18 263 32 472 41 621 87 1168 149
1750 26 243 36 299 42 235 2 -19 15 -156 28 -305z"/>
<path d="M13284 30837 c-116 -39 -238 -130 -364 -274 -95 -110 -101 -110 -203
1 -91 100 -177 167 -272 212 -78 37 -184 64 -258 64 -126 0 -305 -64 -430
-154 -171 -122 -260 -276 -275 -473 -6 -76 -10 -88 -32 -104 -22 -17 -32 -18
-95 -8 -92 15 -312 6 -390 -16 -136 -38 -272 -125 -357 -230 -68 -83 -152
-258 -183 -379 -53 -209 -22 -407 84 -528 70 -81 62 -116 -37 -156 -171 -67
-267 -246 -248 -460 14 -153 83 -257 209 -318 91 -44 183 -58 337 -52 l125 5
135 -131 c361 -350 712 -561 1035 -621 67 -13 89 -14 107 -4 53 28 51 46 -28
280 l-67 197 -51 6 c-68 9 -220 61 -276 93 -71 42 -145 118 -171 176 -30 68
-32 168 -3 217 35 60 66 75 152 74 84 -1 169 -27 293 -90 62 -31 68 -32 95
-18 60 31 59 69 -5 171 -72 117 -138 252 -172 356 -17 51 -35 96 -40 101 -32
34 23 88 137 136 43 17 224 70 403 115 717 184 1042 324 1267 549 163 163 217
335 184 592 -38 305 -179 561 -357 649 -69 34 -182 43 -249 22z"/>
<path d="M46577 20748 c2 -29 51 -946 108 -2038 57 -1092 106 -2012 108 -2045
4 -55 -20 -147 -284 -1070 -738 -2588 -882 -3090 -1045 -3656 -96 -333 -174
-617 -174 -631 0 -39 47 -121 83 -146 36 -24 275 -105 502 -171 311 -89 727
-186 1030 -238 l159 -28 122 -112 c348 -320 701 -747 903 -1090 l43 -72 24 17
c13 9 25 22 27 27 2 6 -2 253 -9 550 -7 296 -12 541 -10 543 2 2 80 -3 172
-10 222 -17 1315 -17 1537 0 132 10 165 16 206 36 63 32 118 97 136 161 17 58
854 3825 920 4140 106 500 164 863 207 1275 20 191 17 799 -5 966 -58 453
-176 815 -375 1152 -78 132 -221 326 -309 419 l-58 63 -191 -34 c-105 -19
-255 -42 -333 -51 l-144 -17 -56 55 c-126 124 -335 245 -496 289 -117 31 -300
31 -410 -1 -44 -13 -109 -27 -145 -31 -36 -5 -130 -22 -210 -39 -477 -99 -900
-106 -1330 -20 -58 11 -108 24 -112 28 -5 4 -33 97 -63 206 -73 262 -186 636
-276 910 -67 208 -232 674 -248 703 -4 8 -6 -10 -4 -40z"/>
<path d="M50463 3855 c-21 -9 -33 -21 -33 -33 0 -11 -4 -64 -10 -118 -5 -55
-19 -216 -30 -359 -45 -589 -53 -769 -55 -1245 -2 -425 -4 -480 -20 -525 -65
-184 -271 -309 -546 -330 -211 -16 -415 -127 -450 -242 -25 -85 32 -179 122
-203 64 -18 636 -7 789 14 255 36 315 57 384 137 19 23 42 63 51 88 11 34 28
275 65 891 27 465 51 853 52 864 2 12 104 -108 303 -359 165 -208 303 -383
306 -388 8 -11 64 6 92 27 17 13 12 26 -90 198 -199 333 -338 603 -396 765
-15 40 -38 125 -53 190 -75 338 -192 567 -319 624 -48 22 -118 24 -162 4z"/>
<path d="M49030 2948 c-488 -708 -935 -1333 -1114 -1558 -105 -131 -156 -177
-242 -217 -53 -25 -70 -28 -164 -28 -82 1 -118 6 -163 22 l-58 22 -89 -45
c-135 -68 -273 -185 -318 -271 -19 -35 -14 -104 11 -147 43 -75 36 -74 547
-82 507 -7 529 -5 659 59 76 37 171 122 216 192 18 28 63 122 100 210 187 442
425 831 593 971 l34 27 -6 -44 c-4 -24 -38 -347 -76 -718 -66 -633 -70 -675
-54 -692 20 -23 57 -25 77 -5 12 13 31 106 42 211 7 67 86 511 120 670 46 224
61 274 139 467 189 473 255 905 167 1103 -27 60 -79 115 -136 141 -27 13 -54
24 -60 24 -5 0 -107 -141 -225 -312z"/>
<path d="M12967 1750 c-10 -35 -62 -402 -86 -605 -37 -303 -49 -466 -41 -529
16 -111 94 -230 192 -292 88 -56 125 -61 548 -78 1105 -45 2120 -70 2580 -65
296 4 317 5 350 24 49 30 78 99 62 153 -17 55 -61 117 -107 150 -37 27 -2634
1226 -2641 1219 -2 -1 4 -29 12 -61 18 -68 19 -66 -81 -116 -100 -50 -174 -64
-320 -64 -100 0 -152 6 -225 24 -82 19 -197 56 -209 66 -2 2 -9 47 -15 101 -9
68 -15 90 -19 73z"/>
<path d="M9617 1523 c-84 -199 -160 -452 -248 -818 -65 -274 -60 -372 24 -456
59 -59 93 -69 316 -89 315 -29 517 -40 734 -40 190 0 200 1 246 25 78 39 128
109 138 194 11 96 -52 403 -126 611 -79 220 -219 468 -340 600 l-50 55 4 -47
c3 -27 7 -68 10 -92 l4 -45 -47 -10 c-26 -6 -93 -16 -148 -23 -85 -10 -116 -9
-195 4 -52 8 -121 26 -154 39 -59 23 -60 25 -72 74 -6 28 -14 67 -18 88 -3 21
-12 37 -20 37 -7 0 -32 -46 -58 -107z"/>
</g>
</svg>
